# This file uses centimeters as units for non-parametric coordinates.

mtllib bottle.mtl
g default
v -0.850255 23.585058 3.347334
v -0.934171 23.465702 3.624099
v -1.081815 23.298833 3.843742
v -1.278736 23.100784 3.984761
v -1.505655 22.890943 4.033353
v -1.740363 22.689850 3.984761
v -1.959883 22.517189 3.843742
v -2.142726 22.389863 3.624099
v -2.270997 22.320333 3.347333
v -2.332138 22.315406 3.040536
v -2.320164 22.375566 2.733739
v -2.236248 22.494921 2.456973
v -2.088604 22.661790 2.237331
v -1.891684 22.859839 2.096312
v -1.664764 23.069680 2.047720
v -1.430057 23.270773 2.096312
v -1.210537 23.443433 2.237331
v -1.027693 23.570760 2.456973
v -0.899422 23.640291 2.733739
v -0.838282 23.645216 3.040536
v 0.470002 22.101933 3.108038
v 0.386086 21.982577 3.384804
v 0.238442 21.815708 3.604447
v 0.041522 21.617660 3.745466
v -0.185398 21.407819 3.794058
v -0.420106 21.206726 3.745466
v -0.639625 21.034065 3.604447
v -0.822469 20.906738 3.384804
v -0.950740 20.837208 3.108038
v -1.011881 20.832282 2.801241
v -0.999907 20.892441 2.494444
v -0.915991 21.011796 2.217678
v -0.768347 21.178665 1.998036
v -0.571427 21.376714 1.857016
v -0.344507 21.586555 1.808425
v -0.109800 21.787648 1.857016
v 0.109720 21.960309 1.998036
v 0.292564 22.087636 2.217678
v 0.420835 22.157166 2.494444
v 0.481975 22.162092 2.801241
v -1.585210 22.980311 3.040536
v 0.346545 21.557655 2.920322
v 0.302695 21.495288 3.064938
v 0.225548 21.408095 3.179707
v 0.122653 21.304611 3.253393
v 0.004082 21.194964 3.278783
v -0.118558 21.089888 3.253393
v -0.233262 20.999669 3.179707
v -0.328803 20.933138 3.064938
v -0.395827 20.896807 2.920322
v -0.427774 20.894233 2.760013
v -0.421518 20.925667 2.599705
v -0.377670 20.988033 2.455089
v -0.300522 21.075227 2.340320
v -0.197627 21.178711 2.266634
v -0.079056 21.288358 2.241244
v 0.043584 21.393433 2.266634
v 0.158288 21.483652 2.340320
v 0.253828 21.550184 2.455089
v 0.320853 21.586516 2.599705
v 0.352799 21.589088 2.760013
v 1.390204 20.007358 2.614914
v 1.368526 19.976525 2.686411
v 1.330384 19.933417 2.743152
v 1.279514 19.882255 2.779582
v 1.220893 19.828047 2.792134
v 1.160261 19.776098 2.779582
v 1.103552 19.731494 2.743152
v 1.056317 19.698601 2.686411
v 1.023181 19.680640 2.614914
v 1.007386 19.679367 2.535658
v 1.010479 19.694908 2.456403
v 1.032157 19.725741 2.384905
v 1.070299 19.768849 2.328165
v 1.121169 19.820011 2.291735
v 1.179790 19.874220 2.279182
v 1.240423 19.926169 2.291735
v 1.297131 19.970772 2.328165
v 1.344366 20.003665 2.384905
v 1.377502 20.021627 2.456403
v 1.393297 20.022899 2.535658
v 1.342498 19.968104 2.595000
v 1.326267 19.945018 2.648532
v 1.297709 19.912742 2.691016
v 1.259620 19.874435 2.718292
v 1.215729 19.833847 2.727691
v 1.170332 19.794952 2.718292
v 1.127871 19.761555 2.691016
v 1.092505 19.736927 2.648532
v 1.067695 19.723479 2.595000
v 1.055869 19.722526 2.535658
v 1.058185 19.734162 2.476317
v 1.074416 19.757247 2.422785
v 1.102974 19.789524 2.380301
v 1.141063 19.827831 2.353024
v 1.184954 19.868419 2.343626
v 1.230352 19.907315 2.353024
v 1.272811 19.940711 2.380301
v 1.308178 19.965339 2.422785
v 1.332988 19.978787 2.476317
v 1.344813 19.979740 2.535658
v 0.851850 20.519279 2.683929
v 0.835619 20.496193 2.737461
v 0.709694 20.402308 2.624588
v 0.807061 20.463916 2.779945
v 0.768973 20.425610 2.807222
v 0.725081 20.385022 2.816620
v 0.679684 20.346126 2.807222
v 0.637223 20.312729 2.779945
v 0.601857 20.288101 2.737461
v 0.577047 20.274653 2.683929
v 0.565221 20.273700 2.624588
v 0.567537 20.285336 2.565246
v 0.583768 20.308422 2.511714
v 0.612326 20.340698 2.469230
v 0.650415 20.379006 2.441954
v 0.694306 20.419593 2.432555
v 0.739704 20.458489 2.441954
v 0.782163 20.491885 2.469230
v 0.817530 20.516513 2.511714
v 0.842340 20.529962 2.565246
v 0.854166 20.530914 2.624588
vt 0.648603 0.107966
vt 0.626409 0.064408
vt 0.591842 0.029841
vt 0.548284 0.007647
vt 0.500000 -0.000000
vt 0.451716 0.007647
vt 0.408159 0.029841
vt 0.373591 0.064409
vt 0.351397 0.107966
vt 0.343750 0.156250
vt 0.351397 0.204534
vt 0.373591 0.248091
vt 0.408159 0.282659
vt 0.451716 0.304853
vt 0.500000 0.312500
vt 0.548284 0.304853
vt 0.591841 0.282659
vt 0.626409 0.248091
vt 0.648603 0.204534
vt 0.656250 0.156250
vt 0.375000 0.312500
vt 0.387500 0.312500
vt 0.400000 0.312500
vt 0.412500 0.312500
vt 0.425000 0.312500
vt 0.437500 0.312500
vt 0.450000 0.312500
vt 0.462500 0.312500
vt 0.475000 0.312500
vt 0.487500 0.312500
vt 0.500000 0.312500
vt 0.512500 0.312500
vt 0.525000 0.312500
vt 0.537500 0.312500
vt 0.550000 0.312500
vt 0.562500 0.312500
vt 0.575000 0.312500
vt 0.587500 0.312500
vt 0.600000 0.312500
vt 0.612500 0.312500
vt 0.625000 0.312500
vt 0.375000 0.688440
vt 0.387500 0.688440
vt 0.400000 0.688440
vt 0.412500 0.688440
vt 0.425000 0.688440
vt 0.437500 0.688440
vt 0.450000 0.688440
vt 0.462500 0.688440
vt 0.475000 0.688440
vt 0.487500 0.688440
vt 0.500000 0.688440
vt 0.512500 0.688440
vt 0.525000 0.688440
vt 0.537500 0.688440
vt 0.550000 0.688440
vt 0.562500 0.688440
vt 0.575000 0.688440
vt 0.587500 0.688440
vt 0.600000 0.688440
vt 0.612500 0.688440
vt 0.625000 0.688440
vt 0.648603 0.795466
vt 0.626409 0.751908
vt 0.591842 0.717341
vt 0.548284 0.695147
vt 0.500000 0.687500
vt 0.451716 0.695147
vt 0.408159 0.717341
vt 0.373591 0.751909
vt 0.351397 0.795466
vt 0.343750 0.843750
vt 0.351397 0.892034
vt 0.373591 0.935591
vt 0.408159 0.970159
vt 0.451716 0.992353
vt 0.500000 1.000000
vt 0.548284 0.992353
vt 0.591841 0.970159
vt 0.626409 0.935591
vt 0.648603 0.892034
vt 0.656250 0.843750
vt 0.500000 0.150000
vt 0.500000 0.837500
vt 0.648603 0.892034
vt 0.626409 0.935591
vt 0.591841 0.970159
vt 0.548284 0.992353
vt 0.500000 1.000000
vt 0.451716 0.992353
vt 0.408159 0.970159
vt 0.373591 0.935591
vt 0.351397 0.892034
vt 0.343750 0.843750
vt 0.351397 0.795466
vt 0.373591 0.751909
vt 0.408159 0.717341
vt 0.451716 0.695147
vt 0.500000 0.687500
vt 0.548284 0.695147
vt 0.591842 0.717341
vt 0.626409 0.751908
vt 0.648603 0.795466
vt 0.656250 0.843750
vt 0.648603 0.892034
vt 0.626409 0.935591
vt 0.591841 0.970159
vt 0.548284 0.992353
vt 0.500000 1.000000
vt 0.451716 0.992353
vt 0.408159 0.970159
vt 0.373591 0.935591
vt 0.351397 0.892034
vt 0.343750 0.843750
vt 0.351397 0.795466
vt 0.373591 0.751909
vt 0.408159 0.717341
vt 0.451716 0.695147
vt 0.500000 0.687500
vt 0.548284 0.695147
vt 0.591842 0.717341
vt 0.626409 0.751908
vt 0.648603 0.795466
vt 0.656250 0.843750
vt 0.648603 0.892034
vt 0.626409 0.935591
vt 0.591841 0.970159
vt 0.548284 0.992353
vt 0.500000 1.000000
vt 0.451716 0.992353
vt 0.408159 0.970159
vt 0.373591 0.935591
vt 0.351397 0.892034
vt 0.343750 0.843750
vt 0.351397 0.795466
vt 0.373591 0.751909
vt 0.408159 0.717341
vt 0.451716 0.695147
vt 0.500000 0.687500
vt 0.548284 0.695147
vt 0.591842 0.717341
vt 0.626409 0.751908
vt 0.648603 0.795466
vt 0.656250 0.843750
vt 0.648603 0.892034
vt 0.626409 0.935591
vt 0.591841 0.970159
vt 0.548284 0.992353
vt 0.500000 1.000000
vt 0.451716 0.992353
vt 0.408159 0.970159
vt 0.373591 0.935591
vt 0.351397 0.892034
vt 0.343750 0.843750
vt 0.351397 0.795466
vt 0.373591 0.751909
vt 0.408159 0.717341
vt 0.451716 0.695147
vt 0.500000 0.687500
vt 0.548284 0.695147
vt 0.591842 0.717341
vt 0.626409 0.751908
vt 0.648603 0.795466
vt 0.656250 0.843750
vn 0.734954 0.604746 0.306797
vn 0.651038 0.485390 0.583563
vn 0.741247 0.370757 0.559547
vn 0.824246 0.488809 0.285805
vn 0.503394 0.318521 0.803205
vn 0.595216 0.205712 0.776789
vn 0.306474 0.120473 0.944225
vn 0.400448 0.009828 0.916267
vn 0.079554 -0.089368 0.992817
vn 0.176008 -0.197720 0.964328
vn -0.155153 -0.290461 0.944225
vn -0.056135 -0.396616 0.916267
vn -0.374673 -0.463122 0.803205
vn -0.273256 -0.567390 0.776788
vn -0.557517 -0.590449 0.583562
vn -0.454102 -0.693325 0.559546
vn -0.685787 -0.659979 0.306797
vn -0.580971 -0.762095 0.285805
vn -0.746928 -0.664905 0.000000
vn -0.641443 -0.766968 -0.017640
vn -0.734954 -0.604746 -0.306797
vn -0.629600 -0.707466 -0.321084
vn -0.651039 -0.485390 -0.583562
vn -0.546601 -0.589415 -0.594825
vn -0.503394 -0.318521 -0.803205
vn -0.400570 -0.424369 -0.812068
vn -0.306474 -0.120473 -0.944225
vn -0.205802 -0.228485 -0.951546
vn -0.079554 0.089368 -0.992817
vn 0.018638 -0.020937 -0.999607
vn 0.155153 0.290461 -0.944225
vn 0.250780 0.177958 -0.951546
vn 0.374673 0.463122 -0.803205
vn 0.467901 0.348732 -0.812068
vn 0.557516 0.590448 -0.583563
vn 0.648747 0.474668 -0.594826
vn 0.685787 0.659979 -0.306797
vn 0.775616 0.543438 -0.321084
vn 0.746928 0.664905 -0.000000
vn 0.836089 0.548310 -0.017640
vn -0.660129 0.741562 0.119648
vn -0.660129 0.741562 0.119648
vn -0.660129 0.741562 0.119648
vn -0.660129 0.741562 0.119648
vn -0.660129 0.741562 0.119648
vn -0.660129 0.741562 0.119648
vn -0.660129 0.741562 0.119648
vn -0.660129 0.741562 0.119648
vn -0.660129 0.741562 0.119648
vn -0.660129 0.741562 0.119648
vn -0.660129 0.741562 0.119648
vn -0.660129 0.741562 0.119648
vn -0.660129 0.741562 0.119648
vn -0.660129 0.741562 0.119648
vn -0.660129 0.741562 0.119648
vn -0.660129 0.741562 0.119648
vn -0.660129 0.741562 0.119648
vn -0.660129 0.741562 0.119648
vn -0.660129 0.741562 0.119648
vn -0.660129 0.741562 0.119648
vn -0.660129 0.741562 0.119648
vn -0.653187 -0.686894 -0.318626
vn -0.569839 -0.568347 -0.593520
vn 0.660129 -0.741562 -0.119647
vn -0.423198 -0.402611 -0.811670
vn -0.227614 -0.205906 -0.951732
vn -0.002234 0.002510 -0.999994
vn 0.230878 0.202236 -0.951733
vn 0.448907 0.373725 -0.811673
vn 0.630515 0.500192 -0.593514
vn 0.757915 0.569248 -0.318626
vn 0.818638 0.574141 -0.013916
vn 0.806747 0.514391 0.290794
vn 0.723401 0.395847 0.565682
vn 0.576755 0.230105 0.783840
vn 0.381172 0.033402 0.923901
vn 0.155794 -0.175013 0.972162
vn -0.077320 -0.374741 0.923900
vn -0.295350 -0.546230 0.783837
vn -0.476952 -0.672692 0.565687
vn -0.604355 -0.741751 0.290794
vn -0.665078 -0.746644 -0.013916
vn 0.875567 0.108206 0.470822
vn 0.950868 0.215303 0.222474
vn 0.743088 -0.041525 0.667904
vn 0.566391 -0.219236 0.794441
vn 0.362774 -0.407526 0.838044
vn 0.152172 -0.587968 0.794442
vn -0.044806 -0.742896 0.667905
vn -0.208871 -0.857148 0.470819
vn -0.323970 -0.919537 0.222475
vn -0.378832 -0.923957 -0.052814
vn -0.368087 -0.869977 -0.328103
vn -0.292788 -0.762878 -0.576448
vn -0.160308 -0.613146 -0.773533
vn 0.016391 -0.435437 -0.900070
vn 0.220005 -0.247145 -0.943672
vn 0.430610 -0.066705 -0.900070
vn 0.627586 0.088225 -0.773532
vn 0.791650 0.202475 -0.576450
vn 0.906750 0.264863 -0.328103
vn 0.961611 0.269287 -0.052814
vn 0.746441 0.363182 0.557607
vn 0.829322 0.481065 0.284255
vn 0.600624 0.198378 0.774530
vn 0.406135 0.002775 0.913809
vn 0.182019 -0.204473 0.961800
vn -0.049787 -0.403081 0.913809
vn -0.266596 -0.573609 0.774532
vn -0.447180 -0.699362 0.557604
vn -0.573867 -0.768034 0.284255
vn -0.634252 -0.772899 -0.018750
vn -0.622426 -0.713484 -0.321755
vn -0.539546 -0.595601 -0.595104
vn -0.393727 -0.430795 -0.812031
vn -0.199239 -0.235193 -0.951309
vn 0.024877 -0.027945 -0.999300
vn 0.256684 0.170663 -0.951308
vn 0.473493 0.341192 -0.812030
vn 0.654074 0.466943 -0.595106
vn 0.780763 0.535615 -0.321755
vn 0.841148 0.540481 -0.018750
vn -0.573385 -0.565036 -0.593265
vn -0.656779 -0.683650 -0.318218
vn -0.426663 -0.399208 -0.811537
vn -0.230969 -0.202394 -0.951677
vn -0.005464 0.006138 -0.999966
vn 0.227778 0.205976 -0.951678
vn 0.445928 0.377560 -0.811540
vn 0.627638 0.504097 -0.593260
vn 0.755107 0.573193 -0.318219
vn 0.815866 0.578087 -0.013339
vn 0.803967 0.518306 0.291541
vn 0.720576 0.399693 0.566582
vn 0.573847 0.233861 0.784862
vn 0.378156 0.037048 0.925000
vn 0.152652 -0.171484 0.973289
vn -0.080591 -0.371323 0.925000
vn -0.298744 -0.542907 0.784859
vn -0.480446 -0.669440 0.566588
vn -0.607919 -0.738538 0.291541
vn -0.668678 -0.743432 -0.013339
s 1
g bottle
usemtl mia_material_x1SG
f 1/21/1 2/22/2 22/43/3 21/42/4
f 2/22/2 3/23/5 23/44/6 22/43/3
f 3/23/5 4/24/7 24/45/8 23/44/6
f 4/24/7 5/25/9 25/46/10 24/45/8
f 5/25/9 6/26/11 26/47/12 25/46/10
f 6/26/11 7/27/13 27/48/14 26/47/12
f 7/27/13 8/28/15 28/49/16 27/48/14
f 8/28/15 9/29/17 29/50/18 28/49/16
f 9/29/17 10/30/19 30/51/20 29/50/18
f 10/30/19 11/31/21 31/52/22 30/51/20
f 11/31/21 12/32/23 32/53/24 31/52/22
f 12/32/23 13/33/25 33/54/26 32/53/24
f 13/33/25 14/34/27 34/55/28 33/54/26
f 14/34/27 15/35/29 35/56/30 34/55/28
f 15/35/29 16/36/31 36/57/32 35/56/30
f 16/36/31 17/37/33 37/58/34 36/57/32
f 17/37/33 18/38/35 38/59/36 37/58/34
f 18/38/35 19/39/37 39/60/38 38/59/36
f 19/39/37 20/40/39 40/61/40 39/60/38
f 20/40/39 1/41/1 21/62/4 40/61/40
s 2
f 2/2/41 1/1/42 41/83/43
f 3/3/44 2/2/41 41/83/43
f 4/4/45 3/3/44 41/83/43
f 5/5/46 4/4/45 41/83/43
f 6/6/47 5/5/46 41/83/43
f 7/7/48 6/6/47 41/83/43
f 8/8/49 7/7/48 41/83/43
f 9/9/50 8/8/49 41/83/43
f 10/10/51 9/9/50 41/83/43
f 11/11/52 10/10/51 41/83/43
f 12/12/53 11/11/52 41/83/43
f 13/13/54 12/12/53 41/83/43
f 14/14/55 13/13/54 41/83/43
f 15/15/56 14/14/55 41/83/43
f 16/16/57 15/15/56 41/83/43
f 17/17/58 16/16/57 41/83/43
f 18/18/59 17/17/58 41/83/43
f 19/19/60 18/18/59 41/83/43
f 20/20/61 19/19/60 41/83/43
f 1/1/42 20/20/61 41/83/43
s 1
f 102/145/62 103/146/63 104/84/64
f 103/146/63 105/147/65 104/84/64
f 105/147/65 106/148/66 104/84/64
f 106/148/66 107/149/67 104/84/64
f 107/149/67 108/150/68 104/84/64
f 108/150/68 109/151/69 104/84/64
f 109/151/69 110/152/70 104/84/64
f 110/152/70 111/153/71 104/84/64
f 111/153/71 112/154/72 104/84/64
f 112/154/72 113/155/73 104/84/64
f 113/155/73 114/156/74 104/84/64
f 114/156/74 115/157/75 104/84/64
f 115/157/75 116/158/76 104/84/64
f 116/158/76 117/159/77 104/84/64
f 117/159/77 118/160/78 104/84/64
f 118/160/78 119/161/79 104/84/64
f 119/161/79 120/162/80 104/84/64
f 120/162/80 121/163/81 104/84/64
f 121/163/81 122/164/82 104/84/64
f 122/164/82 102/145/62 104/84/64
f 21/81/4 22/80/3 43/86/83 42/85/84
f 22/80/3 23/79/6 44/87/85 43/86/83
f 23/79/6 24/78/8 45/88/86 44/87/85
f 24/78/8 25/77/10 46/89/87 45/88/86
f 25/77/10 26/76/12 47/90/88 46/89/87
f 26/76/12 27/75/14 48/91/89 47/90/88
f 27/75/14 28/74/16 49/92/90 48/91/89
f 28/74/16 29/73/18 50/93/91 49/92/90
f 29/73/18 30/72/20 51/94/92 50/93/91
f 30/72/20 31/71/22 52/95/93 51/94/92
f 31/71/22 32/70/24 53/96/94 52/95/93
f 32/70/24 33/69/26 54/97/95 53/96/94
f 33/69/26 34/68/28 55/98/96 54/97/95
f 34/68/28 35/67/30 56/99/97 55/98/96
f 35/67/30 36/66/32 57/100/98 56/99/97
f 36/66/32 37/65/34 58/101/99 57/100/98
f 37/65/34 38/64/36 59/102/100 58/101/99
f 38/64/36 39/63/38 60/103/101 59/102/100
f 39/63/38 40/82/40 61/104/102 60/103/101
f 40/82/40 21/81/4 42/85/84 61/104/102
f 42/85/84 43/86/83 63/106/103 62/105/104
f 43/86/83 44/87/85 64/107/105 63/106/103
f 44/87/85 45/88/86 65/108/106 64/107/105
f 45/88/86 46/89/87 66/109/107 65/108/106
f 46/89/87 47/90/88 67/110/108 66/109/107
f 47/90/88 48/91/89 68/111/109 67/110/108
f 48/91/89 49/92/90 69/112/110 68/111/109
f 49/92/90 50/93/91 70/113/111 69/112/110
f 50/93/91 51/94/92 71/114/112 70/113/111
f 51/94/92 52/95/93 72/115/113 71/114/112
f 52/95/93 53/96/94 73/116/114 72/115/113
f 53/96/94 54/97/95 74/117/115 73/116/114
f 54/97/95 55/98/96 75/118/116 74/117/115
f 55/98/96 56/99/97 76/119/117 75/118/116
f 56/99/97 57/100/98 77/120/118 76/119/117
f 57/100/98 58/101/99 78/121/119 77/120/118
f 58/101/99 59/102/100 79/122/120 78/121/119
f 59/102/100 60/103/101 80/123/121 79/122/120
f 60/103/101 61/104/102 81/124/122 80/123/121
f 61/104/102 42/85/84 62/105/104 81/124/122
f 62/105/104 63/106/103 83/126/123 82/125/124
f 63/106/103 64/107/105 84/127/125 83/126/123
f 64/107/105 65/108/106 85/128/126 84/127/125
f 65/108/106 66/109/107 86/129/127 85/128/126
f 66/109/107 67/110/108 87/130/128 86/129/127
f 67/110/108 68/111/109 88/131/129 87/130/128
f 68/111/109 69/112/110 89/132/130 88/131/129
f 69/112/110 70/113/111 90/133/131 89/132/130
f 70/113/111 71/114/112 91/134/132 90/133/131
f 71/114/112 72/115/113 92/135/133 91/134/132
f 72/115/113 73/116/114 93/136/134 92/135/133
f 73/116/114 74/117/115 94/137/135 93/136/134
f 74/117/115 75/118/116 95/138/136 94/137/135
f 75/118/116 76/119/117 96/139/137 95/138/136
f 76/119/117 77/120/118 97/140/138 96/139/137
f 77/120/118 78/121/119 98/141/139 97/140/138
f 78/121/119 79/122/120 99/142/140 98/141/139
f 79/122/120 80/123/121 100/143/141 99/142/140
f 80/123/121 81/124/122 101/144/142 100/143/141
f 81/124/122 62/105/104 82/125/124 101/144/142
f 82/125/124 83/126/123 103/146/63 102/145/62
f 83/126/123 84/127/125 105/147/65 103/146/63
f 84/127/125 85/128/126 106/148/66 105/147/65
f 85/128/126 86/129/127 107/149/67 106/148/66
f 86/129/127 87/130/128 108/150/68 107/149/67
f 87/130/128 88/131/129 109/151/69 108/150/68
f 88/131/129 89/132/130 110/152/70 109/151/69
f 89/132/130 90/133/131 111/153/71 110/152/70
f 90/133/131 91/134/132 112/154/72 111/153/71
f 91/134/132 92/135/133 113/155/73 112/154/72
f 92/135/133 93/136/134 114/156/74 113/155/73
f 93/136/134 94/137/135 115/157/75 114/156/74
f 94/137/135 95/138/136 116/158/76 115/157/75
f 95/138/136 96/139/137 117/159/77 116/158/76
f 96/139/137 97/140/138 118/160/78 117/159/77
f 97/140/138 98/141/139 119/161/79 118/160/78
f 98/141/139 99/142/140 120/162/80 119/161/79
f 99/142/140 100/143/141 121/163/81 120/162/80
f 100/143/141 101/144/142 122/164/82 121/163/81
f 101/144/142 82/125/124 102/145/62 122/164/82
